<?xml version="1.0" encoding="utf-8"?>
<!-- Svg Vector Icons : http://www.onlinewebfonts.com/icon -->
<!DOCTYPE svg PUBLIC "-//W3C//DTD SVG 1.1//EN" "http://www.w3.org/Graphics/SVG/1.1/DTD/svg11.dtd">
<svg version="1.1" xmlns="http://www.w3.org/2000/svg" xmlns:xlink="http://www.w3.org/1999/xlink" x="0px" y="0px" viewBox="0 0 1000 1000" enable-background="new 0 0 1000 1000" xml:space="preserve">
<metadata> Svg Vector Icons : http://www.onlinewebfonts.com/icon </metadata>
<g><g transform="translate(0.000000,512.000000) scale(0.100000,-0.100000)"><path fill='#0000FF' d="M3947.1,5004.3c-92-26.8-235.8-182.1-304.8-327.8c-72.9-147.6-153.4-439-166.8-600c-21.1-222.4,57.5-278,389.1-278h214.7v-153.4v-153.4h-253.1c-412.1,0-584.7-53.7-778.3-237.7c-88.2-82.4-126.5-143.8-247.3-394.9c-500.3-1033.3-726.5-2009-828.1-3565.6c-36.4-544.4-47.9-1359.2-21.1-1485.7c69-337.4,354.6-636.4,701.6-730.4c118.8-30.7,130.3-30.7,230,0c67.1,21.1,103.5,42.2,95.8,55.6c-122.7,278-115,241.5-122.7,693.9c-19.2,1146.4,116.9,2396.2,348.9,3201.4c101.6,347,289.5,830,370,948.9c40.2,57.5,115,134.2,166.8,166.8c176.4,120.8,185.9,120.8,1257.5,120.8c1071.6,0,1081.2,0,1257.5-120.8c136.1-90.1,222.4-232,354.6-578.9c366.2-970,521.4-2005.2,523.3-3498.5l1.9-661.4l-53.7-124.6c-30.7-69-55.6-136.1-57.5-151.5c-1.9-15.3,32.6-36.4,92-53.7c78.6-23,115-24.9,195.5-5.7c347,76.7,663.3,389.1,732.3,724.6c46,220.4,3.8,1468.4-76.7,2208.4c-122.7,1152.1-347,1980.2-770.6,2856.3c-120.8,251.1-159.1,312.5-247.3,394.9c-193.6,184-366.1,237.7-776.4,237.7h-255v151.4v151.4l237.7,7.7c207,5.7,245.4,11.5,293.3,46c86.3,65.2,95.8,147.6,46,385.3c-78.6,377.6-201.3,617.3-370,728.4l-80.5,53.7l-1016,3.8C4409.1,5021.5,3987.4,5015.8,3947.1,5004.3z M5612.9,3645.2v-153.4h-613.4h-613.4v153.4v153.4h613.4h613.4V3645.2z"/><path fill='#0000FF' d="M3996.9,1931.4c-139.9-51.8-184-115-312.5-452.4c-241.5-642.2-377.6-1276.7-458.2-2127.9c-38.3-416-72.8-1257.6-63.3-1600.7c5.7-249.2,13.4-301,51.7-387.2c74.8-166.8,80.5-168.7,312.5-120.8c563.6,116.9,1236.5,166.8,1805.8,134.2c456.2-24.9,709.3-57.5,1213.4-155.3c143.8-28.8,168.7-13.4,239.6,141.8c44.1,97.8,44.1,109.3,42.2,694c-3.8,1259.5-140,2315.7-400.7,3099.8c-191.7,578.9-279.9,736.1-440.9,780.2C5866,1969.7,4092.8,1964,3996.9,1931.4z"/><path fill='#0000FF' d="M927.8-2355c-74.8-23-143.8-90.1-186-182.1c-42.2-90.1-46-237.7-15.3-529.1c86.3-866.5,450.5-1474.2,994.9-1669.7l124.6-44.1h3153.4H8153l124.6,44.1c548.3,195.5,914.4,812.8,996.8,1681.2c9.6,116.9,19.2,262.6,19.2,325.9c-1.9,358.5-304.8,498.4-642.2,295.2c-82.4-49.8-103.5-76.7-151.4-185.9c-185.9-423.7-381.5-628.8-695.9-734.2c-113.1-36.4-153.4-40.3-348.9-30.7c-272.2,13.4-492.6,57.5-968.1,197.4c-582.8,170.6-998.8,237.7-1487.6,237.7c-488.8,0-904.8-67.1-1489.5-237.7c-488.8-143.8-678.6-182.1-956.6-197.4c-205.1-9.6-243.4-7.7-358.5,30.7c-314.4,105.4-508,310.5-695.9,734.2c-47.9,109.3-69,136.1-151.4,184C1196.2-2343.5,1056.3-2316.7,927.8-2355z"/></g></g>
</svg>